<svg xmlns="http://www.w3.org/2000/svg" viewBox="0 0 1920 1080" preserveAspectRatio="xMidYMid slice" width="1920" height="1080">
  <defs>
    <radialGradient id="bgGlow" cx="25%" cy="55%" r="65%">
      <stop offset="0%" stop-color="#2a1658" stop-opacity="0.55"/>
      <stop offset="45%" stop-color="#14092e" stop-opacity="0.25"/>
      <stop offset="100%" stop-color="#07030f" stop-opacity="0"/>
    </radialGradient>
    <radialGradient id="cornerGlow" cx="100%" cy="0%" r="80%">
      <stop offset="0%" stop-color="#7c3aed" stop-opacity="0.18"/>
      <stop offset="60%" stop-color="#7c3aed" stop-opacity="0"/>
    </radialGradient>
    <radialGradient id="bottomGlow" cx="15%" cy="100%" r="55%">
      <stop offset="0%" stop-color="#a855f7" stop-opacity="0.22"/>
      <stop offset="70%" stop-color="#5b21b6" stop-opacity="0"/>
    </radialGradient>
    <pattern id="hexGrid" x="0" y="0" width="90" height="104" patternUnits="userSpaceOnUse">
      <path d="M45 2 L87 26 L87 78 L45 102 L3 78 L3 26 Z"
            fill="none" stroke="#8b5cf6" stroke-width="0.6" stroke-opacity="0.08"/>
    </pattern>
    <pattern id="dotMatrix" x="0" y="0" width="40" height="40" patternUnits="userSpaceOnUse">
      <circle cx="20" cy="20" r="0.8" fill="#c4b5fd" fill-opacity="0.12"/>
    </pattern>
    <pattern id="circuit" x="0" y="0" width="200" height="200" patternUnits="userSpaceOnUse">
      <path d="M0 50 L80 50 L90 60 L90 110 L100 120 L180 120"
            fill="none" stroke="#a78bfa" stroke-width="0.5" stroke-opacity="0.1"/>
      <path d="M50 0 L50 70 L60 80 L130 80 L140 90 L140 200"
            fill="none" stroke="#a78bfa" stroke-width="0.5" stroke-opacity="0.08"/>
      <circle cx="90" cy="60" r="1.5" fill="#c4b5fd" fill-opacity="0.25"/>
      <circle cx="140" cy="90" r="1.5" fill="#c4b5fd" fill-opacity="0.25"/>
      <circle cx="50" cy="70" r="1" fill="#a78bfa" fill-opacity="0.2"/>
    </pattern>
    <pattern id="scanlines" x="0" y="0" width="4" height="4" patternUnits="userSpaceOnUse">
      <rect x="0" y="0" width="4" height="1" fill="#ffffff" fill-opacity="0.015"/>
    </pattern>
    <linearGradient id="cubeFace1" x1="0%" y1="0%" x2="0%" y2="100%">
      <stop offset="0%" stop-color="#a855f7" stop-opacity="0.9"/>
      <stop offset="100%" stop-color="#6d28d9" stop-opacity="0.7"/>
    </linearGradient>
    <linearGradient id="cubeFace2" x1="0%" y1="0%" x2="0%" y2="100%">
      <stop offset="0%" stop-color="#7c3aed" stop-opacity="0.75"/>
      <stop offset="100%" stop-color="#4c1d95" stop-opacity="0.5"/>
    </linearGradient>
    <linearGradient id="cubeFace3" x1="0%" y1="0%" x2="0%" y2="100%">
      <stop offset="0%" stop-color="#5b21b6" stop-opacity="0.6"/>
      <stop offset="100%" stop-color="#2e1065" stop-opacity="0.4"/>
    </linearGradient>
    <filter id="softGlow" x="-50%" y="-50%" width="200%" height="200%">
      <feGaussianBlur stdDeviation="8" result="blur"/>
      <feMerge>
        <feMergeNode in="blur"/>
        <feMergeNode in="SourceGraphic"/>
      </feMerge>
    </filter>
    <filter id="strongGlow" x="-100%" y="-100%" width="300%" height="300%">
      <feGaussianBlur stdDeviation="15"/>
    </filter>
  </defs>

  <rect width="1920" height="1080" fill="#0a0514"/>
  <rect width="1920" height="1080" fill="url(#bgGlow)"/>
  <rect width="1920" height="1080" fill="url(#cornerGlow)"/>
  <rect width="1920" height="1080" fill="url(#bottomGlow)"/>
  <rect width="1920" height="1080" fill="url(#hexGrid)"/>
  <rect x="0" y="0" width="1100" height="1080" fill="url(#circuit)" opacity="0.7"/>
  <rect width="1920" height="1080" fill="url(#dotMatrix)"/>

  <g transform="translate(340, 560)" opacity="0.85">
    <circle cx="0" cy="0" r="180" fill="#7c3aed" fill-opacity="0.15" filter="url(#strongGlow)"/>
    <polygon points="0,-90 90,-45 0,0 -90,-45" fill="url(#cubeFace1)" stroke="#c4b5fd" stroke-width="1" stroke-opacity="0.5"/>
    <polygon points="-90,-45 0,0 0,90 -90,45" fill="url(#cubeFace3)" stroke="#c4b5fd" stroke-width="1" stroke-opacity="0.4"/>
    <polygon points="90,-45 0,0 0,90 90,45" fill="url(#cubeFace2)" stroke="#c4b5fd" stroke-width="1" stroke-opacity="0.4"/>
    <line x1="0" y1="-90" x2="0" y2="0" stroke="#e9d5ff" stroke-width="0.8" stroke-opacity="0.4"/>
    <line x1="0" y1="0" x2="0" y2="90" stroke="#e9d5ff" stroke-width="0.8" stroke-opacity="0.3"/>
  </g>

  <g transform="translate(720, 240)" opacity="0.7">
    <polygon points="0,-45 45,-22 0,0 -45,-22" fill="url(#cubeFace1)" stroke="#c4b5fd" stroke-width="0.8" stroke-opacity="0.5"/>
    <polygon points="-45,-22 0,0 0,45 -45,22" fill="url(#cubeFace3)" stroke="#c4b5fd" stroke-width="0.8" stroke-opacity="0.4"/>
    <polygon points="45,-22 0,0 0,45 45,22" fill="url(#cubeFace2)" stroke="#c4b5fd" stroke-width="0.8" stroke-opacity="0.4"/>
  </g>

  <g transform="translate(880, 800)" opacity="0.6">
    <polygon points="0,-30 30,-15 0,0 -30,-15" fill="url(#cubeFace1)" stroke="#c4b5fd" stroke-width="0.6" stroke-opacity="0.5"/>
    <polygon points="-30,-15 0,0 0,30 -30,15" fill="url(#cubeFace3)" stroke="#c4b5fd" stroke-width="0.6" stroke-opacity="0.4"/>
    <polygon points="30,-15 0,0 0,30 30,15" fill="url(#cubeFace2)" stroke="#c4b5fd" stroke-width="0.6" stroke-opacity="0.4"/>
  </g>

  <g transform="translate(520, 140)" opacity="0.4">
    <polygon points="0,-20 20,-10 0,0 -20,-10" fill="none" stroke="#a78bfa" stroke-width="0.8"/>
    <polygon points="-20,-10 0,0 0,20 -20,10" fill="none" stroke="#a78bfa" stroke-width="0.8"/>
    <polygon points="20,-10 0,0 0,20 20,10" fill="none" stroke="#a78bfa" stroke-width="0.8"/>
  </g>
  <g transform="translate(180, 380)" opacity="0.35">
    <polygon points="0,-25 25,-12 0,0 -25,-12" fill="none" stroke="#a78bfa" stroke-width="0.8"/>
    <polygon points="-25,-12 0,0 0,25 -25,12" fill="none" stroke="#a78bfa" stroke-width="0.8"/>
    <polygon points="25,-12 0,0 0,25 25,12" fill="none" stroke="#a78bfa" stroke-width="0.8"/>
  </g>
  <g transform="translate(940, 420)" opacity="0.4">
    <polygon points="0,-18 18,-9 0,0 -18,-9" fill="none" stroke="#a78bfa" stroke-width="0.8"/>
    <polygon points="-18,-9 0,0 0,18 -18,9" fill="none" stroke="#a78bfa" stroke-width="0.8"/>
    <polygon points="18,-9 0,0 0,18 18,9" fill="none" stroke="#a78bfa" stroke-width="0.8"/>
  </g>
  <g transform="translate(60, 780)" opacity="0.3">
    <polygon points="0,-22 22,-11 0,0 -22,-11" fill="none" stroke="#a78bfa" stroke-width="0.7"/>
    <polygon points="-22,-11 0,0 0,22 -22,11" fill="none" stroke="#a78bfa" stroke-width="0.7"/>
    <polygon points="22,-11 0,0 0,22 22,11" fill="none" stroke="#a78bfa" stroke-width="0.7"/>
  </g>

  <g stroke="#a78bfa" stroke-opacity="0.25" stroke-width="0.6" fill="none">
    <line x1="340" y1="560" x2="720" y2="240"/>
    <line x1="340" y1="560" x2="880" y2="800"/>
    <line x1="340" y1="560" x2="180" y2="380"/>
    <line x1="720" y1="240" x2="520" y2="140"/>
    <line x1="720" y1="240" x2="940" y2="420"/>
    <line x1="880" y1="800" x2="940" y2="420"/>
  </g>

  <g fill="#c4b5fd">
    <circle cx="530" cy="400" r="1.5" fill-opacity="0.6"/>
    <circle cx="620" cy="180" r="1.5" fill-opacity="0.5"/>
    <circle cx="600" cy="680" r="1.5" fill-opacity="0.6"/>
    <circle cx="820" cy="620" r="1.5" fill-opacity="0.5"/>
    <circle cx="260" cy="470" r="1.5" fill-opacity="0.5"/>
  </g>

  <g font-family="monospace" font-size="10" fill="#a78bfa" opacity="0.25">
    <text x="1150" y="120">01101001</text>
    <text x="1150" y="140">11010110</text>
    <text x="1150" y="160">00101101</text>
    <text x="1780" y="300" opacity="0.7">10110100</text>
    <text x="1780" y="320" opacity="0.5">01011010</text>
    <text x="1780" y="340" opacity="0.3">11001011</text>
    <text x="1420" y="900">11100101</text>
    <text x="1420" y="920" opacity="0.7">00110110</text>
    <text x="1420" y="940" opacity="0.4">10101001</text>
  </g>

  <line x1="0" y1="540" x2="1920" y2="540" stroke="#a855f7" stroke-width="0.3" stroke-opacity="0.15"/>
  <line x1="0" y1="541" x2="1920" y2="541" stroke="#a855f7" stroke-width="1" stroke-opacity="0.04" filter="url(#softGlow)"/>

  <g stroke="#a78bfa" stroke-width="1" stroke-opacity="0.35" fill="none">
    <path d="M40 80 L40 40 L80 40"/>
    <path d="M1840 40 L1880 40 L1880 80"/>
    <path d="M40 1000 L40 1040 L80 1040"/>
    <path d="M1840 1040 L1880 1040 L1880 1000"/>
  </g>

  <g stroke="#a78bfa" stroke-opacity="0.2" stroke-width="0.5">
    <line x1="1880" y1="120" x2="1860" y2="120"/>
    <line x1="1880" y1="140" x2="1870" y2="140"/>
    <line x1="1880" y1="160" x2="1860" y2="160"/>
    <line x1="1880" y1="180" x2="1870" y2="180"/>
    <line x1="1880" y1="200" x2="1860" y2="200"/>
  </g>

  <g fill="#c4b5fd">
    <circle cx="420" cy="180" r="1" fill-opacity="0.6"/>
    <circle cx="680" cy="380" r="1.2" fill-opacity="0.5"/>
    <circle cx="820" cy="140" r="0.8" fill-opacity="0.7"/>
    <circle cx="240" cy="640" r="1" fill-opacity="0.5"/>
    <circle cx="560" cy="860" r="1.3" fill-opacity="0.4"/>
    <circle cx="120" cy="220" r="0.9" fill-opacity="0.6"/>
    <circle cx="960" cy="580" r="1" fill-opacity="0.5"/>
    <circle cx="1080" cy="280" r="1.1" fill-opacity="0.4"/>
    <circle cx="1240" cy="600" r="0.9" fill-opacity="0.35"/>
    <circle cx="1380" cy="180" r="1" fill-opacity="0.4"/>
    <circle cx="1540" cy="780" r="1.2" fill-opacity="0.4"/>
    <circle cx="1680" cy="480" r="0.9" fill-opacity="0.4"/>
    <circle cx="1720" cy="920" r="1" fill-opacity="0.35"/>
    <circle cx="1320" cy="340" r="0.8" fill-opacity="0.4"/>
  </g>

  <g>
    <circle cx="780" cy="520" r="2" fill="#e9d5ff" fill-opacity="0.8"/>
    <circle cx="780" cy="520" r="6" fill="#a855f7" fill-opacity="0.2" filter="url(#softGlow)"/>
    <circle cx="460" cy="340" r="1.8" fill="#e9d5ff" fill-opacity="0.7"/>
    <circle cx="460" cy="340" r="5" fill="#a855f7" fill-opacity="0.15" filter="url(#softGlow)"/>
    <circle cx="1580" cy="620" r="1.5" fill="#e9d5ff" fill-opacity="0.6"/>
    <circle cx="1580" cy="620" r="5" fill="#a855f7" fill-opacity="0.12" filter="url(#softGlow)"/>
  </g>

  <g opacity="0.15">
    <rect x="1850" y="400" width="1" height="80" fill="#a855f7"/>
    <rect x="1855" y="420" width="1" height="60" fill="#a855f7" opacity="0.6"/>
    <rect x="1860" y="440" width="1" height="40" fill="#a855f7" opacity="0.4"/>
  </g>

  <rect width="1920" height="1080" fill="url(#scanlines)" opacity="0.5"/>

  <radialGradient id="vignette" cx="50%" cy="50%" r="75%">
    <stop offset="60%" stop-color="#000" stop-opacity="0"/>
    <stop offset="100%" stop-color="#000" stop-opacity="0.4"/>
  </radialGradient>
  <rect width="1920" height="1080" fill="url(#vignette)"/>
</svg>
